# xmcd
#
# Track frame offsets:
#	150
#	15935
#	27912
#	44876
#	62248
#	79065
#	94361
#	110502
#	125274
#	142109
#
# Disc length: 2098 seconds
#
# Revision: 1
# Processed by: cddbd v1.5.2PL0 Copyright (c) Steve Scherf et al.
# Submitted via: EasyCDDAExtractor 2010.6.0.0
#
DISCID=8908300a
DTITLE=Bernard Gekpen - Retrospect: yes
DYEAR=2010
DGENRE=Easy Listening
TTITLE0=Way to see me go
TTITLE1=When see calls my name
TTITLE2=You sunk my battleship
TTITLE3=The soul you never had
TTITLE4=The cosmic joke
TTITLE5=An answer from Elise
TTITLE6=These 'little things'
TTITLE7=A 5th strong wind
TTITLE8=You're on the goodlist, Evelyn
TTITLE9=Oh! sweet nuthin'
EXTD=
EXTT0=
EXTT1=
EXTT2=
EXTT3=
EXTT4=
EXTT5=
EXTT6=
EXTT7=
EXTT8=
EXTT9=
PLAYORDER=
